# xmcd
#
# Track frame offsets: 
#        150
#        20332
#        39350
#        60355
#        86807
#        106392
#        125780
#        143987
#        161667
#        182360
#        212302
#
# Disc length: 3156 seconds
#
# Revision: 12
# Processed by: cddbd v1.5.2PL0 Copyright (c) Steve Scherf et al.
# Submitted via: ExactAudioCopyFreeDBPlugin 1.0
#
DISCID=8c0c520b
DTITLE=Madonna - True Blue (Digitally Remastered)  (Made In Germany)
DYEAR=1986
DGENRE=Pop
TTITLE0=Papa Don't Preach
TTITLE1=Open Your Heart
TTITLE2=White Heat
TTITLE3=Live To Tell
TTITLE4=Where's The Party
TTITLE5=True Blue
TTITLE6=La Isla Bonita
TTITLE7=Jimmy Jimmy
TTITLE8=Love Makes The World Go Round
TTITLE9=True Blue (The Color Mix)
TTITLE10=La Isla Bonita (Extended Remix)
EXTD=YEAR: 1986
EXTT0=
EXTT1=
EXTT2=
EXTT3=
EXTT4=
EXTT5=
EXTT6=
EXTT7=
EXTT8=
EXTT9=
EXTT10=
PLAYORDER=
